<mxfile host="app.diagrams.net" modified="2023-03-25T04:32:12.748Z" agent="Mozilla/5.0 (Windows NT 6.1; Win64; x64) AppleWebKit/537.36 (KHTML, like Gecko) Chrome/100.0.4896.127 Safari/537.36" etag="oIX0yTAtPhuhKMAt9wYh" version="21.1.0" type="github">
  <diagram name="第 1 页" id="GRDvZaboTSoRFHHBoFmb">
    <mxGraphModel dx="4412" dy="3174" grid="0" gridSize="10" guides="1" tooltips="1" connect="1" arrows="1" fold="1" page="1" pageScale="1" pageWidth="827" pageHeight="1169" math="0" shadow="0">
      <root>
        <mxCell id="0" />
        <mxCell id="1" parent="0" />
        <mxCell id="XuNIK-hLuB95dvQplZHj-17" value="" style="rounded=1;whiteSpace=wrap;html=1;" vertex="1" parent="1">
          <mxGeometry x="-277" y="1658" width="2031" height="730" as="geometry" />
        </mxCell>
        <mxCell id="XuNIK-hLuB95dvQplZHj-15" value="" style="rounded=1;whiteSpace=wrap;html=1;" vertex="1" parent="1">
          <mxGeometry x="-179" y="1737" width="1818" height="566" as="geometry" />
        </mxCell>
        <mxCell id="XuNIK-hLuB95dvQplZHj-13" value="" style="rounded=1;whiteSpace=wrap;html=1;" vertex="1" parent="1">
          <mxGeometry x="-76" y="1804" width="1516" height="453" as="geometry" />
        </mxCell>
        <mxCell id="XuNIK-hLuB95dvQplZHj-11" value="" style="rounded=1;whiteSpace=wrap;html=1;" vertex="1" parent="1">
          <mxGeometry x="-18" y="1882" width="959" height="351" as="geometry" />
        </mxCell>
        <mxCell id="Bm8FblEBwML37TJQLxAh-16" style="edgeStyle=orthogonalEdgeStyle;rounded=0;orthogonalLoop=1;jettySize=auto;html=1;exitX=0.5;exitY=1;exitDx=0;exitDy=0;" parent="1" source="baQ6zyngYYexwskYTPrT-6" target="Bm8FblEBwML37TJQLxAh-1" edge="1">
          <mxGeometry relative="1" as="geometry" />
        </mxCell>
        <mxCell id="baQ6zyngYYexwskYTPrT-6" value="" style="rounded=1;whiteSpace=wrap;html=1;" parent="1" vertex="1">
          <mxGeometry x="360" y="-413" width="560" height="220" as="geometry" />
        </mxCell>
        <mxCell id="baQ6zyngYYexwskYTPrT-1" value="Liner" style="ellipse;whiteSpace=wrap;html=1;" parent="1" vertex="1">
          <mxGeometry x="485" y="-290" width="120" height="80" as="geometry" />
        </mxCell>
        <mxCell id="baQ6zyngYYexwskYTPrT-2" value="备忘录" style="ellipse;whiteSpace=wrap;html=1;" parent="1" vertex="1">
          <mxGeometry x="645" y="-290" width="120" height="80" as="geometry" />
        </mxCell>
        <mxCell id="baQ6zyngYYexwskYTPrT-3" value="B站" style="ellipse;whiteSpace=wrap;html=1;" parent="1" vertex="1">
          <mxGeometry x="405" y="-380" width="120" height="80" as="geometry" />
        </mxCell>
        <mxCell id="baQ6zyngYYexwskYTPrT-4" value="今日头条" style="ellipse;whiteSpace=wrap;html=1;" parent="1" vertex="1">
          <mxGeometry x="565" y="-380" width="120" height="80" as="geometry" />
        </mxCell>
        <mxCell id="baQ6zyngYYexwskYTPrT-5" value="知乎" style="ellipse;whiteSpace=wrap;html=1;" parent="1" vertex="1">
          <mxGeometry x="725" y="-380" width="120" height="80" as="geometry" />
        </mxCell>
        <mxCell id="Bm8FblEBwML37TJQLxAh-13" style="edgeStyle=orthogonalEdgeStyle;rounded=0;orthogonalLoop=1;jettySize=auto;html=1;exitX=0.5;exitY=1;exitDx=0;exitDy=0;" parent="1" source="Bm8FblEBwML37TJQLxAh-1" target="Bm8FblEBwML37TJQLxAh-12" edge="1">
          <mxGeometry relative="1" as="geometry" />
        </mxCell>
        <mxCell id="Bm8FblEBwML37TJQLxAh-1" value="" style="rounded=1;whiteSpace=wrap;html=1;" parent="1" vertex="1">
          <mxGeometry x="360" y="-114" width="560" height="124" as="geometry" />
        </mxCell>
        <mxCell id="Bm8FblEBwML37TJQLxAh-2" value="加" style="text;html=1;strokeColor=none;fillColor=none;align=center;verticalAlign=middle;whiteSpace=wrap;rounded=0;" parent="1" vertex="1">
          <mxGeometry x="315" y="-440" width="60" height="30" as="geometry" />
        </mxCell>
        <mxCell id="Bm8FblEBwML37TJQLxAh-3" value="减 - 除" style="text;html=1;strokeColor=none;fillColor=none;align=center;verticalAlign=middle;whiteSpace=wrap;rounded=0;" parent="1" vertex="1">
          <mxGeometry x="325" y="-140" width="60" height="30" as="geometry" />
        </mxCell>
        <mxCell id="Bm8FblEBwML37TJQLxAh-4" value="drawio" style="ellipse;whiteSpace=wrap;html=1;" parent="1" vertex="1">
          <mxGeometry x="420" y="-90" width="120" height="80" as="geometry" />
        </mxCell>
        <mxCell id="Bm8FblEBwML37TJQLxAh-5" value="语雀" style="ellipse;whiteSpace=wrap;html=1;" parent="1" vertex="1">
          <mxGeometry x="560" y="-90" width="120" height="80" as="geometry" />
        </mxCell>
        <mxCell id="Bm8FblEBwML37TJQLxAh-6" value="chatGpt" style="ellipse;whiteSpace=wrap;html=1;" parent="1" vertex="1">
          <mxGeometry x="700" y="-90" width="120" height="80" as="geometry" />
        </mxCell>
        <mxCell id="Bm8FblEBwML37TJQLxAh-17" style="edgeStyle=orthogonalEdgeStyle;rounded=0;orthogonalLoop=1;jettySize=auto;html=1;exitX=0;exitY=0.5;exitDx=0;exitDy=0;entryX=0;entryY=0.5;entryDx=0;entryDy=0;" parent="1" source="Bm8FblEBwML37TJQLxAh-12" target="baQ6zyngYYexwskYTPrT-6" edge="1">
          <mxGeometry relative="1" as="geometry">
            <Array as="points">
              <mxPoint x="185" y="190" />
              <mxPoint x="185" y="-300" />
            </Array>
          </mxGeometry>
        </mxCell>
        <mxCell id="Bm8FblEBwML37TJQLxAh-12" value="工作- 生活" style="ellipse;whiteSpace=wrap;html=1;" parent="1" vertex="1">
          <mxGeometry x="580" y="146" width="120" height="80" as="geometry" />
        </mxCell>
        <mxCell id="Bm8FblEBwML37TJQLxAh-14" value="乘" style="text;html=1;strokeColor=none;fillColor=none;align=center;verticalAlign=middle;whiteSpace=wrap;rounded=0;" parent="1" vertex="1">
          <mxGeometry x="615" y="80" width="60" height="30" as="geometry" />
        </mxCell>
        <mxCell id="Bm8FblEBwML37TJQLxAh-18" value="Text" style="text;html=1;strokeColor=none;fillColor=none;align=center;verticalAlign=middle;whiteSpace=wrap;rounded=0;" parent="1" vertex="1">
          <mxGeometry x="525" y="-110" width="60" height="30" as="geometry" />
        </mxCell>
        <mxCell id="Bm8FblEBwML37TJQLxAh-19" value="复盘 - 思考" style="text;html=1;strokeColor=none;fillColor=none;align=center;verticalAlign=middle;whiteSpace=wrap;rounded=0;" parent="1" vertex="1">
          <mxGeometry x="185" y="-90" width="70" height="30" as="geometry" />
        </mxCell>
        <mxCell id="Bm8FblEBwML37TJQLxAh-20" value="NotionAi" style="ellipse;whiteSpace=wrap;html=1;" parent="1" vertex="1">
          <mxGeometry x="793" y="-90" width="120" height="80" as="geometry" />
        </mxCell>
        <mxCell id="XuNIK-hLuB95dvQplZHj-2" value="" style="rounded=1;whiteSpace=wrap;html=1;" vertex="1" parent="1">
          <mxGeometry x="767" y="2031" width="120" height="60" as="geometry" />
        </mxCell>
        <mxCell id="XuNIK-hLuB95dvQplZHj-3" value="" style="rounded=1;whiteSpace=wrap;html=1;" vertex="1" parent="1">
          <mxGeometry x="17" y="1953" width="120" height="60" as="geometry" />
        </mxCell>
        <mxCell id="XuNIK-hLuB95dvQplZHj-4" value="" style="rounded=1;whiteSpace=wrap;html=1;" vertex="1" parent="1">
          <mxGeometry x="197" y="1953" width="120" height="60" as="geometry" />
        </mxCell>
        <mxCell id="XuNIK-hLuB95dvQplZHj-5" value="" style="rounded=1;whiteSpace=wrap;html=1;" vertex="1" parent="1">
          <mxGeometry x="377" y="1948" width="120" height="60" as="geometry" />
        </mxCell>
        <mxCell id="XuNIK-hLuB95dvQplZHj-6" value="" style="rounded=1;whiteSpace=wrap;html=1;" vertex="1" parent="1">
          <mxGeometry x="570" y="1951" width="120" height="60" as="geometry" />
        </mxCell>
        <mxCell id="XuNIK-hLuB95dvQplZHj-7" value="" style="rounded=1;whiteSpace=wrap;html=1;" vertex="1" parent="1">
          <mxGeometry x="577" y="2125" width="120" height="60" as="geometry" />
        </mxCell>
        <mxCell id="XuNIK-hLuB95dvQplZHj-8" value="" style="rounded=1;whiteSpace=wrap;html=1;" vertex="1" parent="1">
          <mxGeometry x="375" y="2117" width="120" height="60" as="geometry" />
        </mxCell>
        <mxCell id="XuNIK-hLuB95dvQplZHj-9" value="" style="rounded=1;whiteSpace=wrap;html=1;" vertex="1" parent="1">
          <mxGeometry x="193" y="2103" width="120" height="60" as="geometry" />
        </mxCell>
        <mxCell id="XuNIK-hLuB95dvQplZHj-10" value="" style="rounded=1;whiteSpace=wrap;html=1;" vertex="1" parent="1">
          <mxGeometry x="21" y="2099" width="120" height="60" as="geometry" />
        </mxCell>
        <mxCell id="XuNIK-hLuB95dvQplZHj-12" value="复盘" style="rounded=1;whiteSpace=wrap;html=1;" vertex="1" parent="1">
          <mxGeometry x="1067" y="1866" width="120" height="60" as="geometry" />
        </mxCell>
        <mxCell id="XuNIK-hLuB95dvQplZHj-14" value="周" style="rounded=1;whiteSpace=wrap;html=1;" vertex="1" parent="1">
          <mxGeometry x="1236" y="1785" width="120" height="60" as="geometry" />
        </mxCell>
        <mxCell id="XuNIK-hLuB95dvQplZHj-16" value="月" style="rounded=1;whiteSpace=wrap;html=1;" vertex="1" parent="1">
          <mxGeometry x="1444" y="1709" width="120" height="60" as="geometry" />
        </mxCell>
        <mxCell id="XuNIK-hLuB95dvQplZHj-18" value="年" style="rounded=1;whiteSpace=wrap;html=1;" vertex="1" parent="1">
          <mxGeometry x="1564" y="1622" width="120" height="60" as="geometry" />
        </mxCell>
        <mxCell id="XuNIK-hLuB95dvQplZHj-19" value="日" style="rounded=1;whiteSpace=wrap;html=1;" vertex="1" parent="1">
          <mxGeometry x="805" y="1866" width="120" height="60" as="geometry" />
        </mxCell>
        <mxCell id="XuNIK-hLuB95dvQplZHj-20" value="体检" style="rounded=1;whiteSpace=wrap;html=1;" vertex="1" parent="1">
          <mxGeometry x="1072" y="1667" width="120" height="60" as="geometry" />
        </mxCell>
        <mxCell id="XuNIK-hLuB95dvQplZHj-21" value="冬季保暖" style="rounded=1;whiteSpace=wrap;html=1;" vertex="1" parent="1">
          <mxGeometry x="1492" y="1845" width="120" height="60" as="geometry" />
        </mxCell>
        <mxCell id="XuNIK-hLuB95dvQplZHj-23" value="计划" style="rounded=1;whiteSpace=wrap;html=1;" vertex="1" parent="1">
          <mxGeometry x="1072" y="1953" width="120" height="60" as="geometry" />
        </mxCell>
        <mxCell id="XuNIK-hLuB95dvQplZHj-24" value="认知层" style="rounded=1;whiteSpace=wrap;html=1;" vertex="1" parent="1">
          <mxGeometry x="-335" y="2439" width="120" height="60" as="geometry" />
        </mxCell>
        <mxCell id="XuNIK-hLuB95dvQplZHj-25" value="习惯层 -潜意识层" style="rounded=1;whiteSpace=wrap;html=1;" vertex="1" parent="1">
          <mxGeometry x="-321" y="1655" width="120" height="60" as="geometry" />
        </mxCell>
        <mxCell id="XuNIK-hLuB95dvQplZHj-26" value="刻意练习层" style="rounded=1;whiteSpace=wrap;html=1;" vertex="1" parent="1">
          <mxGeometry x="-306" y="1037" width="120" height="60" as="geometry" />
        </mxCell>
        <mxCell id="XuNIK-hLuB95dvQplZHj-27" value="工具" style="rounded=1;whiteSpace=wrap;html=1;" vertex="1" parent="1">
          <mxGeometry x="-206" y="1547" width="120" height="60" as="geometry" />
        </mxCell>
        <mxCell id="XuNIK-hLuB95dvQplZHj-28" value="第二大脑" style="rounded=1;whiteSpace=wrap;html=1;" vertex="1" parent="1">
          <mxGeometry x="167" y="1540" width="120" height="60" as="geometry" />
        </mxCell>
        <mxCell id="XuNIK-hLuB95dvQplZHj-29" value="ai" style="rounded=1;whiteSpace=wrap;html=1;" vertex="1" parent="1">
          <mxGeometry x="392" y="1540" width="120" height="60" as="geometry" />
        </mxCell>
        <mxCell id="XuNIK-hLuB95dvQplZHj-30" value="google地球" style="rounded=1;whiteSpace=wrap;html=1;" vertex="1" parent="1">
          <mxGeometry x="644" y="1540" width="120" height="60" as="geometry" />
        </mxCell>
        <mxCell id="XuNIK-hLuB95dvQplZHj-33" style="edgeStyle=orthogonalEdgeStyle;rounded=0;orthogonalLoop=1;jettySize=auto;html=1;exitX=1;exitY=0.5;exitDx=0;exitDy=0;entryX=1;entryY=0.5;entryDx=0;entryDy=0;" edge="1" parent="1" source="XuNIK-hLuB95dvQplZHj-31" target="XuNIK-hLuB95dvQplZHj-17">
          <mxGeometry relative="1" as="geometry">
            <mxPoint x="1769.666666666667" y="2077.3333333333335" as="targetPoint" />
            <Array as="points">
              <mxPoint x="1883" y="1276" />
              <mxPoint x="1883" y="2023" />
            </Array>
          </mxGeometry>
        </mxCell>
        <mxCell id="XuNIK-hLuB95dvQplZHj-31" value="" style="rounded=1;whiteSpace=wrap;html=1;" vertex="1" parent="1">
          <mxGeometry x="-179" y="1012" width="1870" height="497" as="geometry" />
        </mxCell>
        <mxCell id="XuNIK-hLuB95dvQplZHj-32" value="三叉戟" style="rounded=1;whiteSpace=wrap;html=1;" vertex="1" parent="1">
          <mxGeometry x="644" y="1179" width="120" height="60" as="geometry" />
        </mxCell>
        <mxCell id="XuNIK-hLuB95dvQplZHj-35" value="完成 、下沉到潜意识层" style="ellipse;whiteSpace=wrap;html=1;" vertex="1" parent="1">
          <mxGeometry x="1828" y="1381" width="120" height="80" as="geometry" />
        </mxCell>
        <mxCell id="XuNIK-hLuB95dvQplZHj-36" value="愿景层" style="rounded=1;whiteSpace=wrap;html=1;" vertex="1" parent="1">
          <mxGeometry x="-313" y="597" width="120" height="60" as="geometry" />
        </mxCell>
        <mxCell id="XuNIK-hLuB95dvQplZHj-37" value="" style="rounded=1;whiteSpace=wrap;html=1;" vertex="1" parent="1">
          <mxGeometry x="-171" y="472" width="1870" height="497" as="geometry" />
        </mxCell>
        <mxCell id="XuNIK-hLuB95dvQplZHj-38" value="财富自由" style="rounded=1;whiteSpace=wrap;html=1;" vertex="1" parent="1">
          <mxGeometry x="590" y="667" width="120" height="60" as="geometry" />
        </mxCell>
      </root>
    </mxGraphModel>
  </diagram>
</mxfile>
